<?xml version="1.0" encoding="iso-8859-1"?>
<!-- Generator: Adobe Illustrator 19.0.0, SVG Export Plug-In . SVG Version: 6.00 Build 0)  -->
<svg version="1.1" id="Layer_1" xmlns="http://www.w3.org/2000/svg" xmlns:xlink="http://www.w3.org/1999/xlink" x="0px" y="0px"
	 viewBox="0 0 512 512" style="enable-background:new 0 0 512 512;" xml:space="preserve">
<polygon style="fill:#3E3B43;" points="165.98,193.238 125.608,193.238 125.608,358.963 234.862,358.963 224.413,424.652 
	286.334,424.652 275.885,358.963 385.139,358.963 385.139,193.238 221.49,193.238 "/>
<rect x="156.515" y="220.63" style="fill:#C6C3CB;" width="198.969" height="104.532"/>
<circle style="fill:#CD2A00;" cx="252.531" cy="272.895" r="35.512"/>
<g>
	<path style="fill:#3E3B43;" d="M94.133,383.376V87.516c0-11.922-9.664-21.587-21.587-21.587h-50.96C9.664,65.928,0,75.594,0,87.516
		v295.861h32.648v25.042c0,8.947-7.254,16.201-16.201,16.201H0.207v21.451h32.441l0,0h28.837l0,0h32.441V424.62h-16.24
		c-8.947,0-16.201-7.254-16.201-16.201v-25.042h32.648V383.376z"/>
	<path style="fill:#3E3B43;" d="M512,383.376V87.516c0-11.922-9.664-21.587-21.587-21.587h-50.96
		c-11.922,0-21.587,9.664-21.587,21.587v295.861h32.648v25.042c0,8.947-7.254,16.201-16.201,16.201h-16.24v21.451h32.441l0,0h28.837
		l0,0h32.441V424.62h-16.24c-8.947,0-16.201-7.254-16.201-16.201v-25.042H512V383.376z"/>
</g>
<g>
	<circle style="fill:#77757E;" cx="47.062" cy="121.793" r="25.339"/>
	<circle style="fill:#77757E;" cx="47.062" cy="200.097" r="25.339"/>
	<circle style="fill:#77757E;" cx="47.062" cy="281.067" r="25.339"/>
	<circle style="fill:#77757E;" cx="464.938" cy="121.793" r="25.339"/>
	<circle style="fill:#77757E;" cx="464.938" cy="200.097" r="25.339"/>
	<circle style="fill:#77757E;" cx="464.938" cy="281.067" r="25.339"/>
</g>
<path style="fill:#2F2D30;" d="M304.308,445.736H206.44c-5.822,0-10.542-4.72-10.542-10.542l0,0c0-5.822,4.72-10.542,10.542-10.542
	h97.867c5.822,0,10.542,4.72,10.542,10.542l0,0C314.849,441.016,310.129,445.736,304.308,445.736z"/>
<g>
	<polygon style="fill:#FFFFFF;" points="245.962,258.063 265.407,271.854 245.962,285.645 	"/>
	<polygon style="opacity:0.33;fill:#FFFFFF;enable-background:new    ;" points="254.361,325.165 186.436,325.165 259.943,220.633 
		327.869,220.633 	"/>
</g>
<g>
</g>
<g>
</g>
<g>
</g>
<g>
</g>
<g>
</g>
<g>
</g>
<g>
</g>
<g>
</g>
<g>
</g>
<g>
</g>
<g>
</g>
<g>
</g>
<g>
</g>
<g>
</g>
<g>
</g>
</svg>
